<?xml version="1.0" encoding="UTF-8" standalone="no"?>
<!-- Created with Inkscape (http://www.inkscape.org/) -->

<svg
   version="1.1"
   id="svg1681"
   xml:space="preserve"
   width="1066.6667"
   height="1066.6667"
   viewBox="0 0 1066.6667 1066.6667"
   sodipodi:docname="little-bird-silhouette-444-pubicdomainvectors.org.svg"
   inkscape:version="1.1.2 (b8e25be833, 2022-02-05)"
   xmlns:inkscape="http://www.inkscape.org/namespaces/inkscape"
   xmlns:sodipodi="http://sodipodi.sourceforge.net/DTD/sodipodi-0.dtd"
   xmlns="http://www.w3.org/2000/svg"
   xmlns:svg="http://www.w3.org/2000/svg"><defs
     id="defs1685"><clipPath
       clipPathUnits="userSpaceOnUse"
       id="clipPath1695"><path
         d="M 0,800 H 800 V 0 H 0 Z"
         id="path1693" /></clipPath></defs><sodipodi:namedview
     id="namedview1683"
     pagecolor="#ffffff"
     bordercolor="#666666"
     borderopacity="1.0"
     inkscape:pageshadow="2"
     inkscape:pageopacity="0.0"
     inkscape:pagecheckerboard="0"
     showgrid="false"
     inkscape:zoom="0.77906244"
     inkscape:cx="533.33337"
     inkscape:cy="533.33337"
     inkscape:window-width="1920"
     inkscape:window-height="1018"
     inkscape:window-x="-8"
     inkscape:window-y="-8"
     inkscape:window-maximized="1"
     inkscape:current-layer="g1687" /><g
     id="g1687"
     inkscape:groupmode="layer"
     inkscape:label="little-bird-silhouette-444-pubicdomainvectors.org"
     transform="matrix(1.3333333,0,0,-1.3333333,0,1066.6667)"><g
       id="g1689"><g
         id="g1691"
         clip-path="url(#clipPath1695)"><path
           d="m 665.953,352.559 c 0.242,1.628 -0.907,2.19 -1.355,3.589 -0.119,0.364 -0.23,0.736 -0.34,1.114 l -4.012,-3.248 c 2.251,-0.794 4.991,-1.473 5.707,-1.455"
           style="fill:#67d7ef;fill-opacity:1;fill-rule:nonzero;stroke:none"
           id="path1697" /><path
           d="m 673.438,364.695 -2.148,-1.737 c 1.946,-0.635 3.537,-0.68 2.148,1.737"
           style="fill:#67d7ef;fill-opacity:1;fill-rule:nonzero;stroke:none"
           id="path1699" /><path
           d="m 654.197,412.081 c -1.962,8.108 -4.953,15.958 -9.091,23.232 -2.119,3.716 -4.503,7.651 -7.458,10.532 -0.393,0.387 -0.74,0.806 -1.073,1.237 l -16.044,-24.331 z"
           style="fill:#dcf07c;fill-opacity:1;fill-rule:nonzero;stroke:none"
           id="path1701" /><path
           d="m 561.469,262.826 c 0.247,0.313 0.488,0.623 0.732,0.907 1.695,1.713 3.524,3.395 5.267,5.067 5.641,5.442 9.164,13.093 14.018,19.376 2.108,2.73 3.137,6.908 4.298,10.092 0.701,1.918 1.407,3.831 2.082,5.735 l -30.523,-20.808 z"
           style="fill:#8bebdb;fill-opacity:1;fill-rule:nonzero;stroke:none"
           id="path1703" /><path
           d="m 650.62,359.034 c 2.728,-1.315 6.456,-3.149 6.448,-3.237 -0.016,-0.484 1.434,-1.168 3.178,-1.783 l 4.012,3.248 c -0.889,3.042 -1.613,6.461 -3.402,8.964 0.666,1.38 4.868,-0.89 6.345,-1.537 0.56,-0.245 2.448,-1.197 4.089,-1.731 l 2.148,1.737 c -0.071,0.125 -0.145,0.251 -0.233,0.388 -0.015,0.039 -0.027,0.07 -0.037,0.098 -0.808,2.098 -1.551,4.225 -2.48,6.282 -0.509,1.113 -1.066,2.197 -1.719,3.231 -0.606,0.94 -0.376,1.484 -0.897,2.295 -0.508,0.793 -0.86,0.497 -1.513,1.532 -0.654,1.017 -1.356,2.004 -2.082,2.965 -0.714,0.957 -1.465,1.902 -2.203,2.834 -0.776,0.974 -0.957,2.039 -1.683,2.953 -1.841,2.331 -4.104,4.602 -4.007,7.712 0.12,4.202 -0.521,7.967 -1.345,12.283 -0.305,1.613 -0.655,3.217 -1.042,4.813 l -33.666,10.67 z"
           style="fill:#b7f3bb;fill-opacity:1;fill-rule:nonzero;stroke:none"
           id="path1705" /><path
           d="m 673.168,365.181 c 0.014,-0.033 0.025,-0.066 0.037,-0.098 0.273,-0.42 -0.177,0.487 -0.037,0.098"
           style="fill:#b7f3bb;fill-opacity:1;fill-rule:nonzero;stroke:none"
           id="path1707" /><path
           d="m 636.575,447.082 c -0.741,0.959 -1.406,1.982 -2.315,2.867 -0.752,0.739 -1.526,1.053 -2.277,1.816 -0.92,0.932 -1.464,2.3 -2.675,2.906 -1.84,0.926 -3.486,2.009 -4.758,3.681 -0.666,0.865 -3.063,2.578 -4.153,2.687 -0.248,0.489 -1.01,1.15 -1.809,1.694 l 1.943,-39.982 z"
           style="fill:#f2da4a;fill-opacity:1;fill-rule:nonzero;stroke:none"
           id="path1709" /><path
           d="m 516.456,388.623 90.67,-25.432 c 0.416,0.435 0.862,0.786 1.745,1.007 1.95,0.485 3.839,0 5.812,0.267 -0.012,0 0.557,0.406 1.211,0.399 1.041,0 2.083,-0.011 3.123,-0.011 -0.037,0.132 -0.073,0.278 -0.109,0.412 0.714,0 2.979,-0.933 3.256,0.254 2.192,0.229 4.311,0.847 6.44,1.368 3.342,0.81 6.624,0.611 9.735,-0.969 1.961,-0.992 4.032,-1.665 5.412,-3.069 0.617,-0.623 1.222,-0.496 1.791,-1.072 0.255,-0.259 1.985,-1.295 2.325,-1.44 0.252,-0.106 1.375,-0.639 2.753,-1.303 l -30.089,63.717 z"
           style="fill:#d8f890;fill-opacity:1;fill-rule:nonzero;stroke:none"
           id="path1711" /><path
           d="m 557.343,283.195 30.523,20.808 c 0.811,2.278 1.575,4.547 2.23,6.795 3.498,12.009 9.793,23.146 10.507,35.931 0.798,4.443 1.332,12.034 5.169,15.109 0.626,0.499 0.979,0.962 1.354,1.353 l -90.67,25.432 z"
           style="fill:#c5f5c1;fill-opacity:1;fill-rule:nonzero;stroke:none"
           id="path1713" /><path
           d="m 580.704,473.631 c -0.953,0.146 -1.951,0.273 -3.055,0.326 -2.506,0.12 -5.883,-0.038 -7.7,-0.37 -4.394,-1.453 -9.056,-2.778 -13.632,-4.055 -5.17,-1.448 -10.787,-2.518 -15.581,-5.006 -1.077,-0.558 -1.792,-0.897 -2.517,-1.755 -1.84,-0.594 -2.457,-2.326 -4.141,-2.979 -0.642,0.618 -9.019,-6.563 -8.814,-7.675 0.097,-0.498 -1.78,-1.841 -2.118,-2.313 -0.847,-1.211 -2.29,-2.132 -2.978,-3.312 -0.666,-1.143 -1.417,-1.355 -2.107,-2.475 -0.52,-0.812 -1.719,-1.719 -2.046,-2.47 -1.272,-2.923 -4.127,-5.774 -5.993,-8.528 -0.945,-1.4 -1.89,-2.805 -2.903,-4.166 l 9.337,-40.23 z"
           style="fill:#ffd100;fill-opacity:1;fill-rule:nonzero;stroke:none"
           id="path1715" /><path
           d="m 620.531,422.751 -1.943,39.982 c -0.683,0.467 -1.394,0.849 -1.834,0.963 -1.187,0.309 -2.918,1.519 -4.178,2.197 -2.615,1.417 -5.436,2.942 -8.401,3.584 -3.487,0.763 -6.769,2.312 -10.388,2.348 -0.266,0.533 -3.014,0.787 -3.534,0.787 -1.248,0 -2.785,0.352 -3.863,0.352 -2.031,0 -3.765,0.372 -5.686,0.667 l -64.248,-85.008 z"
           style="fill:#f9ed2d;fill-opacity:1;fill-rule:nonzero;stroke:none"
           id="path1717" /><path
           d="M 557.343,283.195 516.456,388.623 505.98,290.631 Z"
           style="fill:#cbf387;fill-opacity:1;fill-rule:nonzero;stroke:none"
           id="path1719" /><path
           d="m 488.029,213.39 c 0.844,0.319 1.684,0.649 2.514,1.008 1.598,0.104 2.676,0.74 4.068,1.375 0.63,0 3.631,0.933 4.31,1.265 2.026,1.009 4.168,1.946 6.304,2.944 l -17.154,-2.678 z"
           style="fill:#8bcfa3;fill-opacity:1;fill-rule:nonzero;stroke:none"
           id="path1721" /><path
           d="m 505.98,290.631 41.354,-40.455 c 0.478,0.332 0.906,0.714 1.09,1.396 1.017,0.316 3.754,2.337 4.286,3.269 0.701,1.247 1.985,1.163 2.809,2.56 0.931,0.418 3.317,2.319 3.535,3.263 0.995,0.413 1.73,1.298 2.415,2.162 l -4.126,20.369 z"
           style="fill:#96eaa2;fill-opacity:1;fill-rule:nonzero;stroke:none"
           id="path1723" /><path
           d="m 488.071,217.304 17.154,2.678 c 1.129,0.528 2.258,1.073 3.368,1.657 4.953,2.609 10.885,7.064 15.631,10.823 1.283,1.011 2.723,1.906 4.055,2.882 1.089,0.799 3.899,3.741 5.108,3.741 0.728,0 2.871,1.997 3.319,2.614 0.858,1.168 2.662,1.557 3.559,2.682 0.823,1.029 1.84,1.41 2.918,2.191 0.725,0.522 0.459,1.041 1.041,1.55 0.641,-0.193 1.27,0.278 1.609,0.792 0.383,0.586 0.972,0.895 1.501,1.262 l -41.354,40.455 z"
           style="fill:#9ae292;fill-opacity:1;fill-rule:nonzero;stroke:none"
           id="path1725" /><path
           d="m 516.456,388.623 -9.337,40.23 c -0.025,-0.034 -0.05,-0.069 -0.076,-0.103 -1.802,-2.433 -1.549,0.842 -3.158,1.483 0.254,1.109 -0.993,1.834 -1.356,2.779 -0.618,1.55 -1.635,2.942 -2.773,4.147 -1.574,1.676 -0.169,4.951 -0.169,7.197 0.605,0.115 0.763,3.499 0.799,3.91 0.241,2.906 -0.098,5.382 -0.666,7.7 -0.593,2.421 -1.562,4.849 -2.167,6.943 -0.896,3.07 -3.015,6.338 -2.156,9.667 -0.799,-0.036 -0.483,0.545 -0.363,1.278 0.303,1.676 -0.604,1.882 -0.4,3.292 0.182,1.338 -0.18,2.234 -0.18,3.529 -0.014,1.49 -0.776,3.572 -1.03,5.17 -0.665,4.176 -1.658,8.232 -2.408,12.355 -0.692,2.39 -1.695,6.385 -3.282,9.098 -2.106,3.583 -2.954,8.263 -4.31,12.202 -1.161,3.33 -2.106,6.95 -3.232,10.134 -1.086,3.047 -2.271,6.19 -3.332,9.316 l -26.13,-41.403 c -0.013,-0.574 -0.035,-1.153 -0.066,-1.744 -0.295,0.006 -0.469,0.289 -0.569,0.736 l -2.191,-3.47 c 0.007,-0.116 0.008,-0.225 0,-0.318 -0.23,-2.36 -0.569,-4.69 -0.944,-7.232 -0.243,-1.624 -1.029,-3.318 -0.448,-4.904 -0.037,-0.363 -0.364,-0.363 -0.508,-0.715 -0.424,-0.944 0.096,-2.142 -0.17,-3.184 -0.291,-1.126 -0.388,-2.287 -0.605,-3.426 -0.654,-0.302 -1.429,-0.326 -1.974,-0.859 -0.871,-0.908 -1.041,-4.298 -1.308,-5.551 -1.246,-5.781 -2.347,-11.616 -4.273,-17.221 -2.045,-3.457 -3.16,-6.574 -4.467,-10.243 -1.32,-3.741 -3.571,-8.492 -4.031,-12.397 -2.435,0.896 -2.918,3.633 -4.796,4.879 -2.057,1.38 -1.9,3.124 -4.309,4.068 0.084,0.084 0.194,0.152 0.302,0.297 -0.96,1.851 -3.002,3.625 -4.973,5.306 l -13.157,-20.845 z"
           style="fill:#ffce00;fill-opacity:1;fill-rule:nonzero;stroke:none"
           id="path1727" /><path
           d="M 505.98,290.631 402.243,420.724 369.805,295.361 Z"
           style="fill:#f0d03c;fill-opacity:1;fill-rule:nonzero;stroke:none"
           id="path1729" /><path
           d="M 516.456,388.623 402.243,420.724 505.98,290.631 Z"
           style="fill:#f6e63a;fill-opacity:1;fill-rule:nonzero;stroke:none"
           id="path1731" /><path
           d="m 488.071,217.304 17.909,73.327 -136.175,4.73 z"
           style="fill:#c7df6f;fill-opacity:1;fill-rule:nonzero;stroke:none"
           id="path1733" /><path
           d="m 402.243,420.724 13.157,20.845 c -1.109,0.946 -2.197,1.862 -3.056,2.744 -0.902,0.926 -1.925,1.26 -2.73,1.968 -0.836,0.726 -1.398,1.865 -2.319,2.693 -0.387,0.346 -3.534,3.735 -3.886,3.215 -1.609,1.211 -2.19,2.917 -3.77,3.923 -1.32,0.847 -2.519,2.306 -3.663,3.389 -1.894,1.791 -5.441,3.033 -6.507,5.496 -3.396,7.815 -2.816,16.308 -8.148,23.512 -3.082,3.123 -6.004,7.046 -8.577,10.351 -1.362,1.748 -3.208,3.032 -4.643,4.722 -1.889,2.226 -3.463,4.793 -5.036,7.251 -0.692,1.08 -1.386,2.158 -2.085,3.235 l -21.587,-5.488 z"
           style="fill:#feb200;fill-opacity:1;fill-rule:nonzero;stroke:none"
           id="path1735" /><path
           d="m 476.741,539.295 c -0.432,1.281 -0.85,2.576 -1.268,3.876 l -8.501,-2.161 c 0.222,-1.73 0.499,-3.456 1.029,-5.13 -0.79,-1.292 -2.242,2.49 -2.93,4.647 l -5.307,-1.349 c 0.032,-0.152 0.062,-0.301 0.101,-0.458 0.508,-2.064 0.485,-3.559 0.775,-5.817 0.315,-2.361 0.57,-4.503 0.847,-6.756 0.074,-0.672 1.49,-7.045 0.847,-7.045 -0.992,0 -1.706,3.438 -1.973,4.164 -0.823,2.185 -2.058,4.002 -2.311,6.513 -0.121,1.169 -0.861,2.409 -1.152,3.632 -0.35,1.502 -0.75,2.984 -1.089,4.48 -0.018,0.075 -0.034,0.167 -0.05,0.27 l -1.88,-0.479 c 0.159,-2.204 0.234,-4.453 0.15,-6.789 -0.023,-0.871 0.582,-1.489 0.594,-2.597 0,-1.331 -0.084,-2.657 0.036,-3.983 0.013,-1.338 -0.17,-2.73 -0.048,-4.055 0.351,-3.856 0.751,-7.918 0.727,-12.161 -2.096,0.932 -2.228,5.278 -2.203,7.263 0.023,2.833 0.301,5.957 -0.013,8.771 -0.182,1.544 -0.206,8.88 -2.446,9.34 -0.883,-1.076 -0.375,-4.436 -0.375,-6.149 0,-4.794 0.012,-9.589 0,-14.383 0,-5.525 0.558,-10.113 0.429,-15.392 l 26.13,41.403 c -0.038,0.114 -0.081,0.23 -0.119,0.345"
           style="fill:#feb200;fill-opacity:1;fill-rule:nonzero;stroke:none"
           id="path1737" /><path
           d="m 449.817,502.528 c -1.053,0.375 -1.417,-0.696 -1.38,-1.622 0.047,-1.151 -0.134,-2.477 -0.279,-3.699 -1.085,-0.526 -0.32,-2.908 -0.254,-4.138 l 2.191,3.47 c -0.346,1.53 0.181,4.995 -0.278,5.989"
           style="fill:#feb200;fill-opacity:1;fill-rule:nonzero;stroke:none"
           id="path1739" /><path
           d="m 443.025,183.188 c 1.453,-1.04 3.136,-2.869 3.498,-4.52 0.509,-2.35 1.768,-3.089 3.051,-4.565 0.353,-0.4 0.969,-0.605 1.477,-0.544 0.376,-0.776 0.812,-1.527 1.151,-2.326 -0.412,-2.807 0.024,-4.684 -1.454,-7.312 -1.053,-1.864 -1.488,-3.668 1.199,-1.761 1.696,1.193 3.074,2.839 3.825,4.776 0.582,1.477 1.006,2.348 1.126,3.892 0.074,0.854 1.152,0.538 1.793,0.574 1.09,0.062 1.15,-0.417 1.719,-1.283 -0.278,-2.663 0.121,-4.467 -1.465,-6.828 -0.895,-1.35 -1.549,-1.379 -1.937,-3.086 1.562,0.109 4.479,1.562 5.533,2.802 1.404,1.653 1.804,3.59 2.397,5.599 1.476,0.933 -0.533,3.451 -0.666,4.614 0.957,0.665 0.363,1.681 -0.207,2.305 -0.979,1.072 -0.434,1.544 -0.386,2.954 0.037,0.782 -1.356,2.888 -1.791,3.584 -0.497,0.793 -2.822,1.374 -3.694,1.918 -1.634,1.036 -3.148,1.296 -4.661,2.707 -1.484,1.381 -2.119,3.855 -2.378,6.148 l -11.162,-7.398 c 0.999,-0.73 1.994,-1.502 3.032,-2.25"
           style="fill:#b5b995;fill-opacity:1;fill-rule:nonzero;stroke:none"
           id="path1741" /><path
           d="m 463.667,200.065 c 1.44,-2.324 3.147,-4.461 4.673,-6.738 0.194,-0.314 0.519,-1.319 0.931,-1.803 0.981,-1.186 -0.023,-3.155 0.387,-4.757 0.51,-1.961 3.779,-3.426 3.572,-6.103 -0.145,-2.009 0.194,-2.488 -1.028,-4.261 -0.388,-0.569 -3.222,-3.076 -3.197,-3.499 -0.411,-1.718 8.475,0.618 8.475,0.061 0,0.06 1.549,0.793 1.708,0.853 1.851,0.734 3.219,2.33 4.067,4.098 1.32,2.761 0.859,5.188 1.186,8.173 0.448,4.098 -0.29,5.678 -3.789,8.171 -2.857,2.046 -5.63,5.811 -7.264,8.886 -0.33,0.618 -1.682,1.878 -2.257,2.929 l -8.234,-5.457 c 0.224,-0.217 0.474,-0.408 0.77,-0.553"
           style="fill:#b5b995;fill-opacity:1;fill-rule:nonzero;stroke:none"
           id="path1743" /><path
           d="m 409.711,162.026 c 0.521,-0.526 2.094,-1.809 2.784,-1.876 0.823,-1.132 2.276,1.023 0.83,1.307 -1.118,1.281 -2.021,3.204 -2.111,4.906 l -3.12,-2.067 c 0.612,-0.879 1.273,-1.929 1.617,-2.27"
           style="fill:#b5b995;fill-opacity:1;fill-rule:nonzero;stroke:none"
           id="path1745" /><path
           d="m 475.703,209.106 c 0.314,0.076 0.587,0.15 0.783,0.227 3.781,1.493 7.72,2.608 11.543,4.057 l 0.042,3.914 z"
           style="fill:#b5b995;fill-opacity:1;fill-rule:nonzero;stroke:none"
           id="path1747" /><path
           d="m 346.755,222.624 c 0.37,-0.282 0.753,-0.546 1.164,-0.772 0.636,-0.589 1.175,-1.587 1.937,-2.078 1.296,-0.84 0.843,-0.793 0.848,-2.415 0.006,-0.629 0.103,-1.361 0.031,-2.003 -0.062,-0.564 -0.383,-2.948 -0.358,-4.104 0.212,-0.993 0.533,-1.29 0.999,-2.513 1.398,-3.668 4.31,-4.491 7.191,-6.391 1.502,-0.999 4.129,-1.442 5.836,-1.671 2.803,-0.424 5.417,-1.12 8.589,-1.537 10.14,-1.322 19.601,-2.204 29.509,-2.356 4.758,-0.078 8.476,-0.552 13.167,-0.333 2.402,0.11 4.331,-0.212 6.753,-0.194 4.212,-0.593 -0.062,-3.468 -1.054,-5.236 -1.127,-2.003 -2.882,-3.117 -4.61,-4.775 -0.617,-0.582 -1.198,-1.199 -1.744,-1.852 -1.659,-2.029 -0.459,-0.194 -1.421,-0.994 -1.024,-0.846 -2.652,-2.033 -3.294,-3.232 -2.452,-0.659 -2.185,-3.323 -2.366,-5.2 -0.158,-1.634 -0.423,-3.213 -0.594,-4.806 -1.204,-0.715 -0.103,-3.42 -0.424,-4.546 0.233,-0.027 0.69,-0.618 1.18,-1.32 l 3.12,2.067 c -0.007,0.132 -0.01,0.262 -0.008,0.391 0.048,1.793 0.581,2.082 0.987,3.754 0.69,2.796 5.944,1.664 5.454,5.538 0.291,0.291 0.862,1.894 1.383,2.785 0.884,1.507 2.228,2.427 3.487,3.638 2.409,2.311 5.497,6.622 9.274,6.452 3.226,-0.143 5.727,-1.675 8.202,-3.483 l 11.162,7.398 c -0.121,1.074 -0.16,2.109 -0.164,2.974 -0.012,2.664 -0.532,5.932 2.179,7.119 2.204,0.974 4.698,1.809 6.864,0.919 1.369,-0.564 1.808,-2.205 2.863,-3.23 l 8.234,5.457 c -0.225,0.412 -0.334,0.794 -0.212,1.09 0.475,1.123 3.199,1.557 4.784,1.941 l 12.368,8.198 z"
           style="fill:#c2b266;fill-opacity:1;fill-rule:nonzero;stroke:none"
           id="path1749" /><path
           d="m 369.805,295.361 -24.816,-71.14 c 0.556,-0.57 1.136,-1.116 1.766,-1.597 l 141.316,-5.32 z"
           style="fill:#d3bf53;fill-opacity:1;fill-rule:nonzero;stroke:none"
           id="path1751" /><path
           d="m 459.345,561.359 c -1.018,3.746 -1.659,7.367 -2.724,11.338 -0.703,2.657 -1.404,5.308 -2.143,8.002 0.194,1.38 -0.714,3.899 -1.999,4.54 -0.011,-1.289 -0.241,-4.504 0.982,-5.4 0.121,-1.368 0.786,-6.228 1.453,-6.573 0.631,-4.027 1.325,-7.697 2.008,-11.438 l 2.813,-2.098 c -0.12,0.545 -0.247,1.09 -0.39,1.629"
           style="fill:#ff8500;fill-opacity:1;fill-rule:nonzero;stroke:none"
           id="path1753" /><path
           d="m 472.504,551.752 c -1.053,2.658 -1.828,5.806 -2.518,8.583 -0.774,3.124 -1.78,6.296 -2.772,9.335 -2.724,8.395 -5.205,16.852 -8.015,25.23 -1.247,3.704 -2.215,7.603 -3.813,11.174 -0.205,0.472 -0.665,3.221 -1.489,3.221 -1.284,0 -0.667,-2.749 -0.315,-3.19 1.017,-1.242 1.272,-3.917 1.683,-5.521 0.556,-2.154 1.089,-4.315 1.597,-6.483 0.521,-2.294 0.969,-8.881 2.373,-10.079 1.873,-9.231 3.887,-18.591 5.437,-27.972 l 8.64,-6.441 c -0.262,0.719 -0.527,1.435 -0.808,2.143"
           style="fill:#ff8500;fill-opacity:1;fill-rule:nonzero;stroke:none"
           id="path1755" /><path
           d="m 454.841,544.513 c 0.013,0.532 0.278,3.97 -0.097,3.97 -0.339,0 -0.956,3.657 -1.029,4.202 -0.182,1.361 0.278,7.3 -1.973,6.925 0.083,-7.749 1.604,-14.581 2.137,-21.928 l 1.88,0.479 c -0.248,1.591 -0.327,6.193 -0.918,6.352"
           style="fill:#fe9400;fill-opacity:1;fill-rule:nonzero;stroke:none"
           id="path1757" /><path
           d="m 360.98,514.068 c -2.137,3.301 -4.307,6.578 -6.553,9.81 -1.555,2.233 -3.148,4.449 -4.739,6.652 -0.084,0.117 -0.219,0.324 -0.389,0.593 l -9.906,-22.543 z"
           style="fill:#fe9400;fill-opacity:1;fill-rule:nonzero;stroke:none"
           id="path1759" /><path
           d="m 473.312,549.609 -8.64,6.441 c 0.736,-4.454 1.368,-8.913 1.827,-13.365 0.085,0.036 0.17,0.079 0.254,0.121 0.072,-0.598 0.143,-1.197 0.219,-1.796 l 8.501,2.161 c -0.694,2.151 -1.392,4.312 -2.161,6.438"
           style="fill:#fe9400;fill-opacity:1;fill-rule:nonzero;stroke:none"
           id="path1761" /><path
           d="m 464.708,541.795 c -0.727,3.372 -1.998,6.58 -3.1,9.836 -0.887,2.612 -1.274,5.382 -1.873,8.099 l -2.813,2.098 c 0.196,-1.074 0.391,-2.153 0.582,-3.248 0.327,-1.876 1.405,-14.273 1.841,-14.298 0.089,-1.926 0.029,-3.31 0.419,-5.104 l 5.307,1.349 c -0.188,0.59 -0.319,1.059 -0.363,1.268"
           style="fill:#fe9400;fill-opacity:1;fill-rule:nonzero;stroke:none"
           id="path1763" /><path
           d="m 277.904,614.941 c -0.889,1.021 -1.747,2.077 -2.563,3.01 -0.812,0.927 -1.695,1.816 -2.463,2.712 0.126,0.811 -0.491,1.428 -1.114,1.828 -1.877,1.186 -0.491,0.459 -1.707,2.117 -0.569,0.775 -1.513,1.061 -2.192,1.793 0.061,0.794 -0.52,1.441 -1.095,1.901 -0.636,0.496 -1.543,2.421 -2.404,2.421 -1.615,0 -0.852,2.628 -2.747,2.9 -1.102,1.447 -2.144,2.609 -2.979,4.109 -0.539,0.957 -1.277,1.297 -1.827,2.204 -0.558,0.92 -1.211,1.211 -1.744,2.094 -0.672,1.115 -2.306,2.373 -3.184,3.354 -1.949,2.203 -4.323,4.915 -5.751,7.373 -0.439,0.753 -1.341,1.649 -2.204,2.459 l 0.51,-40.195 z"
           style="fill:#f64e00;fill-opacity:1;fill-rule:nonzero;stroke:none"
           id="path1765" /><path
           d="M 369.805,295.361 402.243,420.724 278.908,421.4 Z"
           style="fill:#fb9b00;fill-opacity:1;fill-rule:nonzero;stroke:none"
           id="path1767" /><path
           d="M 402.243,420.724 339.393,508.58 278.908,421.4 Z"
           style="fill:#ffa300;fill-opacity:1;fill-rule:nonzero;stroke:none"
           id="path1769" /><path
           d="m 339.393,508.58 9.906,22.543 c -0.945,1.494 -3.002,4.861 -3.649,4.764 -0.194,-0.031 -2.397,3.504 -2.712,3.916 -1.514,1.986 -2.99,4.007 -4.51,5.993 -1.616,2.113 -3.286,4.189 -5.103,6.138 -0.611,0.798 -1.392,2.083 -2.343,2.942 -0.611,2.857 -4.897,5.266 -6.761,7.336 -1.737,1.925 -3.42,3.899 -5.067,5.896 -0.248,0.92 -0.974,1.949 -1.979,2.125 -0.557,0.635 -0.326,1.278 -1.065,1.919 -2.209,1.913 -3.451,4.189 -5.466,6.138 -0.878,0.853 -2.046,1.852 -2.894,2.826 -0.986,1.139 -1.471,2.737 -3.05,3.517 -1.059,1.41 -2.27,3.385 -3.536,4.637 -0.672,0.666 -1.307,0.908 -1.889,1.647 -0.503,0.654 -0.816,1.453 -1.434,2.034 -0.533,0.497 -1.216,0.666 -1.683,1.21 -0.006,1.405 -1.537,2.356 -2.609,2.919 -0.551,0.683 -0.49,1.324 -1.053,1.942 -0.739,0.806 -1.652,1.132 -2.422,1.956 -0.048,1.004 -2.003,3.257 -2.911,3.365 0.025,1.478 -2.076,2.385 -2.687,3.56 -0.382,0.744 -1.09,1.295 -1.78,1.73 -0.824,0.521 -0.702,1.49 -1.592,2.168 -1.102,0.836 -2.172,1.964 -3.2,3.14 l -33.464,0.08 z"
           style="fill:#fd7700;fill-opacity:1;fill-rule:nonzero;stroke:none"
           id="path1771" /><path
           d="M 278.908,421.4 231.621,303.352 c 0.366,-0.028 0.739,-0.052 1.129,-0.073 0.348,-0.283 0.605,-0.6 0.81,-0.94 l 136.245,-6.978 z"
           style="fill:#f56500;fill-opacity:1;fill-rule:nonzero;stroke:none"
           id="path1773" /><path
           d="m 233.56,302.339 c 0.384,-0.64 0.578,-1.358 0.807,-2.069 l 7.742,-5.455 c 2.572,-1.046 5.379,-1.012 8.178,-0.943 1.598,0.036 2.318,0.375 3.511,0.587 1.119,0.2 1.367,-0.701 1.761,-1.627 0.6,-1.43 1.284,-1.95 2.675,-2.567 2.04,-0.903 4.765,-1.763 6.593,-1.78 0.715,0 4.891,-0.206 4.891,0.182 0,0.362 0.792,0.169 1.016,0.181 1.478,0.024 1.102,-1.199 2.217,-2.094 1.858,-1.514 10.538,-3.365 11.816,-1.41 1.543,-0.444 3.709,0.375 5.247,0.804 2.355,0.642 4.334,-0.338 6.64,-0.478 0.11,-0.781 1.435,-0.405 2.204,-0.405 2.058,0.012 2.439,0.229 2.942,-1.732 -0.896,-1.222 -1.447,-3.443 -2.039,-4.897 -0.479,-1.186 -0.903,-0.974 -1.418,-1.954 -0.556,-1.067 -0.647,-2.385 -1.246,-3.584 -1.083,-2.173 -2.113,-4.37 -3.155,-6.562 -0.52,-1.101 -1.04,-2.191 -1.573,-3.287 -0.502,-1.018 -1.444,-1.551 -1.684,-2.654 l 49.159,-34.632 c 1.027,1.465 1.944,1.63 3.457,0.041 0.562,-0.588 1.114,-1.196 1.688,-1.783 l 24.816,71.14 z"
           style="fill:#e07000;fill-opacity:1;fill-rule:nonzero;stroke:none"
           id="path1775" /><path
           d="m 278.908,421.4 60.485,87.18 -97.656,-10.137 z"
           style="fill:#ff8800;fill-opacity:1;fill-rule:nonzero;stroke:none"
           id="path1777" /><path
           d="M 339.393,508.58 244.44,615.021 241.737,498.443 Z"
           style="fill:#fd7400;fill-opacity:1;fill-rule:nonzero;stroke:none"
           id="path1779" /><path
           d="m 239.516,188.574 16.171,-30.923 c 0.333,0.427 0.667,0.854 0.999,1.283 1.306,1.688 3.329,3.449 4.357,5.206 3.996,6.839 10.545,13.087 15.303,19.752 2.354,3.287 6.022,6.289 7.96,9.751 1.071,1.9 2.507,2.155 3.953,3.481 0.913,0.012 2.585,0.642 2.893,1.143 2.9,-0.46 6.253,3.221 9.086,3.221 1.646,0 3.239,1.513 4.752,2.071 0.841,0.307 1.791,0.725 2.294,1.518 0.703,0.479 1.592,0.247 2.203,0.89 0.763,0.8 2.113,1.562 3.208,2.155 1.036,0.557 3.766,1.671 4.231,2.749 0.921,-0.267 2.404,1.112 3.258,1.488 1.168,0.503 2.191,1.889 3.329,2.143 2.766,0.611 4.891,3.693 7.663,4.383 0.628,0.159 1.362,0.502 2.082,0.92 L 248.26,197.759 c -2.885,-3.071 -5.795,-6.134 -8.744,-9.185"
           style="fill:#c22c00;fill-opacity:1;fill-rule:nonzero;stroke:none"
           id="path1781" /><path
           d="m 234.761,299.234 c 0.78,-1.644 3.952,-3.413 5.738,-3.594 0.523,-0.331 1.062,-0.601 1.61,-0.825 l -7.742,5.455 c 0.113,-0.35 0.234,-0.699 0.394,-1.036"
           style="fill:#d54200;fill-opacity:1;fill-rule:nonzero;stroke:none"
           id="path1783" /><path
           d="m 290.673,260.555 c -0.344,-1.737 -1.022,-3.511 -1.754,-4.782 -0.691,-0.265 -1.029,-1.15 -1.145,-1.81 -0.181,-1.022 -0.956,-1.513 -1.083,-2.64 -0.254,-2.245 -1.683,-4.024 -2.542,-6.113 -0.37,-0.89 -0.291,-2.088 -0.684,-2.905 -0.497,-1.689 -2.984,-2.404 -2.476,-4.619 -0.352,-0.788 -1.095,-1.35 -1.598,-2.41 -1.211,-2.517 -1.919,-5.411 -3.456,-7.765 -1.356,-2.077 -2.694,-3.07 -4.438,-4.571 -1.574,-1.368 -2.288,-3.111 -3.813,-4.551 -1.684,-1.58 -3.058,-3.378 -4.692,-5.012 -3.971,-3.984 -7.76,-8.154 -11.597,-12.271 -1.042,-1.117 -2.088,-2.232 -3.135,-3.347 l 84.998,22.046 c 0.914,0.531 1.803,1.187 2.416,1.756 1.634,1.513 2.657,1.948 3.832,3.885 0.115,0.189 0.226,0.359 0.338,0.517 l -49.159,34.632 c -0.003,-0.014 -0.009,-0.026 -0.012,-0.04"
           style="fill:#d54200;fill-opacity:1;fill-rule:nonzero;stroke:none"
           id="path1785" /><path
           d="M 244.44,615.021 174.156,509.594 241.737,498.443 Z"
           style="fill:#fa6200;fill-opacity:1;fill-rule:nonzero;stroke:none"
           id="path1787" /><path
           d="m 244.44,615.021 -0.51,40.195 c -0.531,0.499 -1.048,0.965 -1.434,1.343 -0.005,1.112 -1.307,1.67 -1.967,2.42 -1.193,1.551 -2.748,3.015 -3.565,4.686 -0.261,0.545 -2.688,3.148 -3.178,3.263 0.072,0.793 -0.533,1.422 -1.126,1.834 -0.829,0.563 -0.599,1.198 -1.441,1.804 -1.447,1.052 -2.815,3.026 -3.565,4.558 -0.557,1.144 -1.895,2.172 -2.58,3.334 -0.465,0.788 -1.004,1.054 -1.439,1.817 -0.316,0.484 -0.739,0.823 -1.29,0.999 -0.073,0.738 -0.412,1.326 -1.023,1.749 -1.405,1.017 -1.586,2.439 -2.797,3.487 -0.284,0.248 -0.534,0.524 -0.771,0.812 l -13.995,-18.859 c 4.269,-7.03 9.235,-14.004 14.191,-20.403 2.217,-2.87 4.601,-5.763 6.32,-8.862 0.339,-0.606 0.854,-1.247 1.604,-1.332 0.097,-0.793 0.43,-1.526 0.993,-2.095 0.726,-0.725 1.374,-1.622 1.707,-2.639 -0.569,0.025 -2.476,2.422 -2.911,2.857 -1.284,1.271 -2.574,2.554 -3.85,3.827 -2.542,2.542 -5.08,5.084 -7.61,7.627 -3.329,3.329 -7.028,6.476 -10.041,9.879 -0.406,1.264 -1.538,2.202 -2.561,2.977 -0.8,0.605 -1.15,1.714 -2.192,1.986 0.006,0.095 -0.001,0.194 -0.016,0.293 l -11.721,-15.793 z"
           style="fill:#f03600;fill-opacity:1;fill-rule:nonzero;stroke:none"
           id="path1789" /><path
           d="M 163.343,436.268 278.908,421.4 241.737,498.443 Z"
           style="fill:#ff7200;fill-opacity:1;fill-rule:nonzero;stroke:none"
           id="path1791" /><path
           d="m 163.343,436.268 67.429,-132.846 c 0.277,-0.026 0.561,-0.049 0.849,-0.07 L 278.908,421.4 Z"
           style="fill:#fc6300;fill-opacity:1;fill-rule:nonzero;stroke:none"
           id="path1793" /><path
           d="m 233.168,182.099 c -2.385,-2.397 -4.637,-4.667 -7.064,-7.118 -3.129,-3.154 -6.114,-5.72 -9.17,-8.784 -2.893,-2.906 -5.836,-6.271 -8.705,-8.989 -2.688,-1.688 -3.911,-4.654 -6.392,-6.459 -0.253,-0.27 -0.577,-0.566 -0.942,-0.882 l 8.943,-3.491 c 0.868,0.229 1.711,0.485 2.483,0.802 1.58,0.654 3.499,0.999 4.97,2.089 0.659,-0.206 2.597,0.962 2.9,1.482 0.356,0.631 4.382,3.124 5.042,3.1 2.063,-0.084 -0.109,-2.991 -0.381,-2.972 -0.425,0.029 -0.207,-2.04 -0.207,-2.489 1.313,-0.23 1.786,0.406 2.688,1.229 0.932,-0.538 0.612,-2.627 2.36,-1.652 1.763,0.98 0.782,1.162 2.065,0.509 -0.46,-1.665 2.875,0.435 3.13,0.412 0.32,-0.407 -0.122,-1.52 -0.243,-1.949 1.139,0.024 1.526,0.131 2.325,0.859 0.453,0.412 1.066,1.815 1.749,0.689 0.333,-0.544 0.092,-1.403 -0.163,-1.93 1.978,0.138 1.718,1.228 3.813,0.235 1.55,-0.726 1.695,1.32 2.281,1.381 1.03,0.091 1.454,-1.126 1.526,-1.145 3.003,-0.575 4.734,4.408 6.127,6.253 1.108,1.474 2.249,2.922 3.384,4.372 l -16.171,30.923 c -2.095,-2.165 -4.207,-4.324 -6.348,-6.475"
           style="fill:#be0006;fill-opacity:1;fill-rule:nonzero;stroke:none"
           id="path1795" /><path
           d="m 196.311,143.794 c 3.697,-0.091 5.502,0.424 8.994,1.447 1.424,0.415 3.017,0.735 4.533,1.135 l -8.943,3.491 c -1.947,-1.683 -5.049,-3.942 -4.584,-6.073"
           style="fill:#b0001f;fill-opacity:1;fill-rule:nonzero;stroke:none"
           id="path1797" /><path
           d="m 163.275,405.342 c 2.202,0.036 7.529,0.635 8.423,0.357 -0.551,-0.259 -0.896,-0.678 -1.03,-1.27 -1.011,-0.642 -1.943,-1.406 -2.765,-2.277 -1.187,-1.247 -1.974,-2.699 -3.197,-3.868 -0.595,-0.566 -1.142,-2.18 -1.455,-3.687 l -0.024,-10.596 c 0.116,-0.586 0.239,-0.955 0.359,-0.952 -0.333,-0.012 3.972,-12.204 4.945,-13.469 1.877,-1.659 3.5,-4.262 5.975,-5.097 1.054,-0.454 3.409,-0.418 5.103,-0.406 1.774,0.012 2.893,0.606 4.819,1.09 2.863,0.727 6.355,3.45 9.34,3.238 -1.938,-2.548 -5.285,-4.012 -6.992,-6.857 -0.563,-0.944 -4.818,-6.888 -2.977,-8.1 0.011,-1.005 -0.219,-0.738 -0.31,-1.671 -0.152,-1.586 0.224,-2.348 0.279,-3.679 0.031,-0.787 1.138,-2.81 1.483,-3.73 0.635,-1.694 1.592,-3.546 2.899,-4.854 1.283,-1.284 2.555,-2.325 4.178,-3.282 1.173,-0.689 3.195,-1.961 4.593,-1.851 0.57,-0.219 0.866,-0.818 1.586,-0.818 3.487,0 1.223,-0.344 1.072,-2.862 -0.442,-7.144 6.155,-11.993 12.597,-14.033 0.629,-0.193 3.825,-0.374 3.995,-0.756 0.835,-0.721 0.127,-3.408 0.46,-4.425 1.265,-3.886 4.994,-5.811 8.71,-6.973 1.914,-0.602 3.568,-0.912 5.431,-1.092 l -67.429,132.846 z"
           style="fill:#f23700;fill-opacity:1;fill-rule:nonzero;stroke:none"
           id="path1799" /><path
           d="m 241.737,498.443 -67.581,11.151 -10.813,-73.326 z"
           style="fill:#fa6800;fill-opacity:1;fill-rule:nonzero;stroke:none"
           id="path1801" /><path
           d="m 199.393,662.578 c -0.241,1.483 -2.744,3.357 -3.906,3.981 -0.006,1.143 -1.108,1.984 -1.967,2.542 -0.951,0.623 -1.465,1.706 -2.349,2.481 -1.556,1.35 -2.44,2.845 -4.171,4.152 -0.012,-0.108 -0.024,-0.212 -0.036,-0.313 -1.193,1.288 -1.52,2.796 -3.136,3.933 -0.018,-0.229 -0.042,-0.459 -0.066,-0.689 -1.913,2.342 -3.009,5.013 -5.551,6.967 -0.672,0.514 -0.999,1.259 -1.726,2.053 -0.641,0.696 -1.314,1.452 -2.221,1.815 -0.46,0.544 -0.321,1.162 -0.847,1.744 -0.63,0.686 -1.327,1.378 -2.033,2.059 l 16.288,-46.518 z"
           style="fill:#e42300;fill-opacity:1;fill-rule:nonzero;stroke:none"
           id="path1803" /><path
           d="m 215.378,690.39 c -2.167,2.004 -3.396,4.25 -5.43,6.374 -0.575,0.811 -1.507,1.804 -2.361,2.785 -0.901,1.046 -1.168,2.227 -2.44,2.93 -0.574,1.023 -1.888,2.996 -2.735,3.734 -3.384,2.942 -5.927,7.106 -8.808,10.587 -2.397,2.9 -4.588,5.727 -6.895,8.723 -1.458,1.9 -12.523,16.628 -14.703,10.841 0.375,-2.022 0.508,-3.553 1.09,-5.654 0.205,-0.737 1.066,-5.411 1.635,-5.526 0.454,-0.091 1.489,-5.102 1.737,-5.841 0.811,-2.44 1.719,-4.855 2.414,-7.338 2.077,-6.058 5.521,-12.336 8.85,-18.183 2.192,-3.838 5.418,-7.627 7.083,-11.67 0.267,-0.642 1.978,-3.79 2.651,-3.807 1.175,-2.307 2.652,-4.462 4.28,-6.472 0.65,-1.137 1.324,-2.274 2.013,-3.41 l 13.995,18.859 c -0.848,1.028 -1.467,2.231 -2.376,3.068"
           style="fill:#e42300;fill-opacity:1;fill-rule:nonzero;stroke:none"
           id="path1805" /><path
           d="m 244.44,615.021 -56.768,31.764 -0.407,-4.133 c 0.804,-1.257 1.717,-2.719 2.671,-3.103 0.751,-1.623 2.215,-2.876 3.317,-4.255 1.071,-1.338 2.579,-3.057 3.886,-4.522 0.593,-0.666 1.386,-1.09 1.889,-1.804 0.551,-0.787 0.393,-1.501 1.247,-2.143 0.938,-0.715 1.677,-2.723 2.905,-2.918 0.116,-1.174 2.258,-3.027 3.305,-3.602 0.34,-1.071 1.919,-2.736 2.762,-3.396 1.076,-0.847 2.051,-2.106 2.79,-3.244 -1.496,0.218 -3.415,2.47 -4.565,3.354 -1.755,1.344 -3.887,2.573 -5.181,4.37 -0.315,0.447 -2.567,2.263 -3.063,2.263 -0.859,0 -2.924,2.773 -4.11,3.179 -0.303,1.053 -2.307,2.076 -3.179,2.778 -0.944,0.763 -1.955,1.465 -2.856,2.264 -0.613,1.117 -1.711,1.69 -2.632,2.523 L 174.156,509.594 Z"
           style="fill:#f64d00;fill-opacity:1;fill-rule:nonzero;stroke:none"
           id="path1807" /><path
           d="m 163.005,391.935 c -0.527,-0.317 -0.215,-5.708 0.222,-7.934 l 0.024,10.596 c -0.226,-1.085 -0.333,-2.116 -0.246,-2.662"
           style="fill:#f24600;fill-opacity:1;fill-rule:nonzero;stroke:none"
           id="path1809" /><path
           d="m 149.215,434.44 c -0.073,-0.115 -0.126,-0.201 -0.133,-0.23 -0.339,-1.404 -0.114,-3.51 -0.018,-4.945 0.382,-5.478 1.937,-12.96 5.158,-18.492 0.817,-1.392 2.191,-2.749 3.42,-3.766 0.648,-0.532 4.673,-1.06 4.679,-1.549 0,-0.096 0.367,-0.126 0.954,-0.116 l 0.068,30.926 z"
           style="fill:#f24600;fill-opacity:1;fill-rule:nonzero;stroke:none"
           id="path1811" /><path
           d="m 140.892,515.651 c 0.775,-1.537 1.538,-4.044 2.616,-5.327 1.059,-1.253 1.972,-3.438 3.487,-4.297 0.357,-1.03 1.719,-1.803 2.681,-2.644 l 24.48,6.211 -39.012,23.619 c 1.093,-3.625 1.958,-7.324 3.103,-10.934 0.727,-2.269 1.568,-4.504 2.645,-6.628"
           style="fill:#e94c00;fill-opacity:1;fill-rule:nonzero;stroke:none"
           id="path1813" /><path
           d="m 171.384,693.303 c -0.522,0.501 -1.049,0.998 -1.563,1.475 -0.92,0.859 -1.653,1.86 -2.312,2.615 -1.168,0.927 -2.948,2.349 -3.85,3.457 -1.083,1.338 -1.944,3.408 -3.735,4.05 -2.694,3.341 -5.732,6.579 -9.583,8.595 -0.641,0.334 -3.674,1.961 -3.473,-0.243 -0.158,-0.241 -0.951,-2.554 0.065,-3.11 0.878,-3.584 2.489,-7.071 3.851,-10.484 1.882,-4.734 3.492,-9.614 5.98,-14.081 0.963,-1.737 1.272,-3.244 2.797,-4.745 -0.327,-1.29 2.33,-4.037 3.039,-5.158 2.578,-4.085 5.46,-8.148 8.401,-11.961 2.694,-3.493 5.751,-7.178 7.997,-10.835 0.4,-0.659 1.041,-1.216 1.61,-1.782 l 7.064,-4.311 z"
           style="fill:#db1300;fill-opacity:1;fill-rule:nonzero;stroke:none"
           id="path1815" /><path
           d="m 133.556,682.612 c -0.211,0.279 -1.174,1.403 -1.61,0.66 -0.835,0.683 -1.708,1.338 -2.645,1.882 -0.685,0.399 -2.071,1.834 -2.513,1.997 -2.01,0.728 -2.861,0.044 -3.02,-1.372 l 17.365,-10.595 c -1.867,3.061 -5.533,4.715 -7.577,7.428"
           style="fill:#db1300;fill-opacity:1;fill-rule:nonzero;stroke:none"
           id="path1817" /><path
           d="m 175.044,644.391 c -0.41,1.374 -1.828,1.962 -3.001,2.53 -0.855,0.727 -1.392,2.083 -2.494,2.809 -1.634,1.09 -2.494,2.495 -3.942,3.777 -1.3,1.151 -2.566,1.671 -3.534,3.1 -1.035,1.538 -2.839,2.022 -3.857,3.535 -0.484,0.714 -1.295,1.234 -2.082,1.544 -0.527,0.816 -1.7,2.016 -2.433,2.669 -0.339,0.303 -2.203,1.937 -2.663,1.937 -0.442,1.223 -2.416,2.64 -3.578,3.124 -0.248,1.331 -2.5,1.489 -2.5,2.264 0,1.047 -2.688,3.002 -3.608,3.135 -0.067,0.126 -0.145,0.247 -0.219,0.369 l -17.365,10.595 c -0.428,-3.79 4.118,-12.841 4.71,-14.136 1.543,-3.365 3.268,-6.768 4.388,-10.217 0.63,-1.931 1.858,-3.651 2.755,-5.437 0.563,-1.114 2.034,-3.656 3.062,-4.243 0.884,-2.616 3.663,-5.514 5.43,-7.633 0.787,-0.944 1.362,-1.755 1.968,-2.748 0.301,-0.497 0.737,-0.823 1.295,-0.993 -0.103,-0.836 0.575,-1.369 1.143,-1.816 0.814,-0.629 1.425,-1.554 2.03,-2.5 l 25.703,7.428 c -0.285,0.433 -0.707,0.81 -1.208,0.907"
           style="fill:#dd1c00;fill-opacity:1;fill-rule:nonzero;stroke:none"
           id="path1819" /><path
           d="m 180.608,651.096 c 0.247,-0.247 0.483,-0.495 0.678,-0.754 0.036,-0.659 2.215,-3.397 2.876,-3.542 0.049,-0.362 0.176,-0.662 0.354,-0.928 l 3.156,0.913 z"
           style="fill:#dd1c00;fill-opacity:1;fill-rule:nonzero;stroke:none"
           id="path1821" /><path
           d="m 126.57,644.052 c -1.476,1.15 -2.899,2.386 -4.412,3.493 -1.448,1.059 -3.244,2.797 -4.921,3.366 -1.714,0.587 -4.994,2.118 -6.151,0.029 -0.932,-1.694 0.976,-4.745 1.489,-6.173 1.163,-3.239 2.948,-6.15 4.346,-9.129 1.349,-2.861 2.646,-5.553 4.022,-8.138 l 20.16,5.827 c -4.865,3.524 -9.753,6.994 -14.533,10.725"
           style="fill:#dd1c00;fill-opacity:1;fill-rule:nonzero;stroke:none"
           id="path1823" /><path
           d="m 186.451,634.396 c -0.217,0.196 -0.425,0.407 -0.613,0.643 -1.216,1.532 -2.881,2.076 -4.032,3.674 -0.889,1.247 -2.076,1.26 -2.91,2.506 -0.546,0.811 -1.418,1.538 -2.387,1.78 -0.064,0.163 -0.152,0.328 -0.257,0.485 l -25.703,-7.428 c 0.814,-1.277 1.615,-2.593 2.88,-3.275 0.115,-0.556 1.259,-1.707 1.785,-1.846 0.007,-0.974 1.43,-2.065 2.059,-2.616 1.313,-1.143 2.572,-2.681 3.735,-4.116 0.526,-0.647 1.234,-0.477 1.664,-1.058 0.061,-0.97 1.864,-2.616 2.597,-3.172 2.155,-1.622 4.062,-4.438 6.077,-6.453 1.986,-1.992 5.115,-4.128 6.357,-6.574 -4.953,2.312 -9.667,6.332 -14.062,9.727 -5.158,3.978 -10.564,7.737 -15.848,11.726 -2.216,1.675 -4.451,3.307 -6.69,4.928 l -20.16,-5.827 c 2.274,-4.271 4.763,-8.255 8.055,-12.249 0.4,-1.501 2.082,-2.482 2.912,-3.777 0.503,-0.781 2.089,-2.591 2.759,-3.269 2.368,-2.349 5.176,-4.504 7.446,-6.779 1.743,-1.732 3.342,-3.578 5.478,-4.873 0.926,-0.563 1.405,-2.125 2.652,-2.161 0.563,-0.473 1.864,-1.707 2.058,-2.433 -1.78,0.604 -3.735,1.367 -5.442,2.445 0,-0.128 0,-0.255 -0.006,-0.376 -5.484,2.652 -10.896,5.375 -16.991,7.095 -1.889,0.526 -0.69,0.569 -2.034,0.703 -1.58,0.144 -2.192,-0.086 -3.476,-0.4 -2.547,-0.63 -2.148,-2.313 -2.154,-4.486 -0.006,-2.209 1.471,-5.127 2.355,-7.518 1.538,-4.159 2.833,-8.402 4.462,-12.524 0.72,-1.84 1.543,-3.645 2.614,-5.303 -0.242,-0.787 0.908,-2.567 1.369,-3.172 0.999,-1.319 3.529,-3.838 3.789,-4.976 0.496,-1.295 1.567,-2.79 3.068,-2.953 0.273,-0.994 3.832,-3.686 4.934,-3.923 1.205,-0.738 2.342,-1.573 3.547,-2.3 0.913,-0.557 1.865,-1.599 2.736,-1.961 1.452,-0.594 4.855,-1.768 5.115,-3.075 -2.869,-0.171 -6.12,0.774 -8.959,1.355 -1.331,0.267 -2.003,0.775 -3.238,0.751 -2.337,-0.024 -4.813,0.63 -7.071,-0.024 -0.652,-0.194 -2.566,-1.066 -3.317,-1.743 -1.658,-1.509 -1.386,-3.021 -1.289,-5.031 0.139,-2.959 1.574,-7.245 2.627,-10.66 0.07,-0.222 0.134,-0.446 0.202,-0.67 l 39.012,-23.619 z"
           style="fill:#ed4100;fill-opacity:1;fill-rule:nonzero;stroke:none"
           id="path1825" /><path
           d="m 184.516,645.872 c 0.412,-0.622 1.09,-1.059 1.667,-1.686 0.33,-0.365 0.693,-0.926 1.082,-1.534 l 0.407,4.133 z"
           style="fill:#ed4100;fill-opacity:1;fill-rule:nonzero;stroke:none"
           id="path1827" /><path
           d="m 174.156,509.594 -24.48,-6.211 c 0.193,-0.169 0.371,-0.34 0.521,-0.516 -3.124,-1.35 -6.689,-3.475 -7.774,-6.84 -1.252,-3.899 -3.292,-8.293 -3.056,-12.392 -0.835,-0.453 -0.363,-4.861 -0.35,-6.12 0.005,-0.98 -0.491,-4.061 0.047,-4.684 0.835,-0.981 0.945,-4.818 1.314,-6.416 0.545,-2.368 0.938,-4.262 2.071,-6.308 1.64,-2.955 2.857,-4.274 6.398,-5.714 3.371,-2.543 10.466,-1.066 14.933,-1.14 -0.017,-1.1 -5.406,-3.292 -6.611,-3.921 -1.131,-0.594 -1.658,-1.66 -2.681,-2.416 -0.983,-0.725 -2.202,-1.985 -2.902,-3.226 l 11.757,-7.422 z"
           style="fill:#f55e00;fill-opacity:1;fill-rule:nonzero;stroke:none"
           id="path1829" /><path
           d="m 151.586,443.69 c -0.17,-0.302 -0.311,-0.603 -0.409,-0.896 -0.72,-2.167 -1.072,-4.492 -1.344,-7.106 -0.035,-0.348 -0.411,-0.924 -0.618,-1.248 l 14.128,1.828 z"
           style="fill:#f15700;fill-opacity:1;fill-rule:nonzero;stroke:none"
           id="path1831" /></g></g></g></svg>
